<svg xmlns="http://www.w3.org/2000/svg" xmlns:xlink="http://www.w3.org/1999/xlink" width="274" height="274" viewBox="0 0 274 274">
  <defs>
    <clipPath id="clip-Artboard_10">
      <rect width="274" height="274"/>
    </clipPath>
  </defs>
  <g id="Artboard_10" data-name="Artboard – 10" clip-path="url(#clip-Artboard_10)">
    <path id="Path_48" data-name="Path 48" d="M16235.215,11353.725s37.1-12.121,69.906-14.77a218.757,218.757,0,0,1,61.3,4.18l-17.527,164.227s-8.059,17.09-28.352,20.377c-17.422,2.822-43.07-5.77-42.508-27.254,6.668-42.666,57.105-25.953,57.105-25.953l7.16-74.637s-25.234-2.277-49.312,0a279.641,279.641,0,0,0-47,9.109l-10.781,107.117s-13.973,22.463-37.832,22.793-30.531-14.715-32.492-22.793,2.715-23.408,17.41-31.209,38.5,0,38.5,0Z" transform="translate(-16128.445 -11301.632)" fill="#fff"/>
  </g>
</svg>
