<svg xmlns="http://www.w3.org/2000/svg" xmlns:xlink="http://www.w3.org/1999/xlink" width="274" height="274" viewBox="0 0 274 274">
  <defs>
    <clipPath id="clip-Artboard_11">
      <rect width="274" height="274"/>
    </clipPath>
  </defs>
  <g id="Artboard_11" data-name="Artboard – 11" clip-path="url(#clip-Artboard_11)">
    <path id="Path_49" data-name="Path 49" d="M16397.422,11419.618s-.262-138.257,0-140.023,15.131-2.016,16.742,0-1.939,9.841,1.918,18.975,4.186,10.591,16.289,18.609,14.639,12.483,21.068,19.611c13.979,15.5-12.428,44.65-12.428,44.65s2.109-19.679-4.6-30.842-22.244-13.809-22.244-13.809v112.237s-10.2,26.9-43.161,25.733c-17.472-.618-36.489-10.689-39.155-25.208-2.264-12.314,10.224-29.023,19.778-32.907C16371.956,11408.382,16397.422,11419.618,16397.422,11419.618Z" transform="translate(-16257.55 -11239.486)" fill="#fff"/>
  </g>
</svg>
